<?xml version="1.0" standalone="no"?>
<!DOCTYPE svg PUBLIC "-//W3C//DTD SVG 1.1//EN" "http://www.w3.org/Graphics/SVG/1.1/DTD/svg11.dtd">
<svg xmlns="http://www.w3.org/2000/svg">
<metadata>Generated by Fontastic.me</metadata>
<defs>
<font id="15bet" horiz-adv-x="512">
<font-face font-family="15bet" units-per-em="512" ascent="480" descent="-32"/>
<missing-glyph horiz-adv-x="512" />

<glyph glyph-name="mobile" unicode="&#98;" d="M353 507c15 0 27-5 37-15 10-10 14-22 14-36 0 0 0-400 0-400 0-13-4-25-14-36-10-10-22-15-37-15 0 0-194 0-194 0-14 0-26 5-36 15-10 11-15 23-15 36 0 0 0 400 0 400 0 14 5 26 15 36 10 10 22 15 36 15 0 0 194 0 194 0m-97-481c10 0 19 2 26 7 6 5 10 11 10 18 0 8-4 14-10 19-7 4-16 7-26 7-10 0-18-3-25-8-7-5-11-11-11-18 0-7 4-13 11-18 7-5 15-7 25-7m108 76c0 0 0 338 0 338 0 0-216 0-216 0 0 0 0-338 0-338 0 0 216 0 216 0"/>
<glyph glyph-name="right-dir" unicode="&#99;" d="M154 374c0 0 204-118 204-118 0 0-204-118-204-118 0 0 0 236 0 236"/>
<glyph glyph-name="twitter-square" unicode="&#101;" d="M402 338c-10-5-22-8-34-10 13 8 22 19 26 33-12-7-25-12-38-14-12 12-26 19-44 19-16 0-30-6-42-18-12-12-18-26-18-42 0-6 1-10 2-14-25 1-48 8-69 19-22 11-40 25-55 44-6-10-9-20-9-30 0-22 9-39 26-50-9 0-18 2-28 7l0-1c0-14 5-27 14-38 10-11 21-18 35-20-5-2-10-3-14-3-3 0-6 1-11 1 4-12 11-21 21-29 10-8 22-12 35-12-23-17-47-26-75-26-5 0-10 0-14 1 28-18 59-27 92-27 21 0 41 3 60 10 18 7 34 16 48 27 13 12 25 25 34 39 10 15 17 31 22 47 4 16 7 32 7 48 0 3-1 6-1 8 12 8 22 19 30 31z m73 55l0-274c0-23-8-42-24-58-16-16-35-24-58-24l-274 0c-23 0-42 8-58 24-16 16-24 35-24 58l0 274c0 23 8 42 24 58 16 16 35 24 58 24l274 0c23 0 42-8 58-24 16-16 24-35 24-58z"/>
<glyph glyph-name="youtube-square" unicode="&#102;" d="M299 140l0 45c0 9-3 14-8 14-3 0-7-2-10-5l0-64c3-3 7-4 10-4 5 0 8 4 8 14z m53 35l19 0 0 9c0 10-4 15-10 15-6 0-9-5-9-15z m-163 76l0-20-23 0 0-121-21 0 0 121-23 0 0 20z m57-36l0-105-19 0 0 11c-8-8-15-13-22-13-6 0-10 3-12 8-1 3-2 8-2 16l0 83 19 0 0-78c0-4 0-7 1-7 0-3 1-4 4-4 4 0 8 3 12 9l0 80z m72-32l0-42c0-10-1-17-2-21-2-8-7-12-15-12-7 0-13 4-20 12l0-10-19 0 0 141 19 0 0-46c7 7 13 11 20 11 8 0 13-4 15-12 1-4 2-11 2-21z m72-37l0-3c0-5 0-9-1-12 0-4-2-8-4-11-5-8-13-12-23-12-10 0-18 4-23 11-4 5-6 13-6 25l0 37c0 11 2 19 6 24 5 7 13 11 22 11 10 0 18-4 23-11 4-5 6-13 6-24l0-22-38 0 0-19c0-9 3-14 9-14 5 0 8 2 9 7 0 0 0 1 0 2 0 1 0 3 0 5l0 6z m-129 235l0-44c0-10-3-15-9-15-6 0-9 5-9 15l0 44c0 10 3 15 9 15 6 0 9-5 9-15z m152-203c0 33-2 58-5 74-2 8-6 15-13 21-6 6-13 9-21 10-26 3-65 4-118 4-52 0-92-1-117-4-9-1-16-4-22-10-6-6-11-13-12-21-4-17-6-41-6-74 0-34 2-59 6-75 1-8 6-15 12-20 6-6 13-9 21-10 26-3 66-5 118-5 52 0 92 2 118 5 8 1 15 4 21 10 6 5 11 12 12 20 4 16 6 41 6 75z m-216 186l26 84-21 0-15-55-15 55-22 0 7-19 6-20c7-20 11-35 13-45l0-58 21 0z m83-23l0 37c0 11-2 19-6 25-6 7-13 10-22 10-10 0-17-3-23-10-4-6-6-14-6-25l0-37c0-11 2-20 6-25 6-8 13-11 23-11 9 0 16 3 22 11 4 5 6 13 6 25z m52-35l19 0 0 106-19 0 0-81c-4-6-8-9-12-9-3 0-5 2-5 5 0 0 0 3 0 7l0 78-19 0 0-84c0-7 0-12 1-15 3-6 7-8 13-8 7 0 14 4 22 13z m143 87l0-274c0-23-8-42-24-58-16-16-35-24-58-24l-274 0c-23 0-42 8-58 24-16 16-24 35-24 58l0 274c0 23 8 42 24 58 16 16 35 24 58 24l274 0c23 0 42-8 58-24 16-16 24-35 24-58z"/>
<glyph glyph-name="star" unicode="&#107;" d="M494 327c0-4-3-9-8-14l-103-101 24-143c0-1 0-3 0-5 0-4-1-8-3-10-2-3-4-5-8-5-4 0-8 2-12 4l-128 67-128-67c-4-2-8-4-12-4-4 0-7 2-9 5-2 2-3 6-3 10 0 1 0 3 1 5l24 143-104 101c-4 6-7 10-7 14 0 7 6 12 16 13l144 21 64 130c4 8 8 12 14 12 6 0 10-4 14-12l64-130 144-21c10-1 16-6 16-13z"/>
<glyph glyph-name="envelope-o" unicode="&#108;" d="M475 82l0 220c-6-7-12-13-19-19-51-39-92-72-122-97-10-8-18-14-24-19-6-4-14-9-24-14-11-4-21-7-30-7l0 0c-9 0-19 3-30 7-10 5-18 10-24 14-6 5-14 11-24 19-30 25-71 58-122 97-7 6-13 12-19 19l0-220c0-2 0-4 2-6 2-2 4-3 7-3l420 0c3 0 5 1 7 3 2 2 2 4 2 6z m0 301l0 7 0 3-1 4-1 2-3 3-4 0-420 0c-3 0-5-1-7-2-2-2-2-4-2-7 0-32 14-59 42-81 36-29 75-59 114-91 1-1 5-3 10-8 6-5 10-8 13-11 4-2 8-5 13-9 5-3 10-6 14-8 5-1 9-2 13-2l0 0c4 0 8 1 13 2 4 2 9 5 14 8 5 4 9 7 13 9 3 3 7 6 13 11 5 5 9 7 10 8 39 32 78 62 114 91 11 8 20 19 29 33 9 14 13 26 13 38z m37 10l0-311c0-12-4-23-13-32-9-9-20-13-33-13l-420 0c-13 0-24 4-33 13-9 9-13 20-13 32l0 311c0 13 4 23 13 32 9 9 20 14 33 14l420 0c13 0 24-5 33-14 9-9 13-19 13-32z"/>
<glyph glyph-name="comment" unicode="&#109;" d="M427 491l-363 0c-35 0-64-29-64-64l0-256c0-36 43-43 64-43l0-128 192 128 171 0c35 0 64 29 64 64l0 235c0 35-29 64-64 64z m21-299c0-12-10-21-21-21l-192 0-128-107 0 107-43 0c-12 0-21 9-21 21l0 235c0 11 9 21 21 21l363 0c11 0 21-10 21-21z m-363 192l256 0 0-43-256 0z m0-64l320 0 0-21-320 0z m0-43l320 0 0-21-320 0z m0-42l171 0 0-22-171 0z"/>
<glyph glyph-name="sign-in-1" unicode="&#110;" d="M148 354l0 114 364 0 0-427-364 0 0 112 35 0 1-74 292 0 0 354-292 0 0-79z m-148-72l284 0 0 123 152-154-152-152 0 122-284 0z"/>
<glyph glyph-name="facebook-official" unicode="&#97;" d="M393 475c23 0 42-8 58-24 16-16 24-35 24-58l0-274c0-23-8-42-24-58-16-16-35-24-58-24l-54 0 0 170 57 0 9 66-66 0 0 42c0 11 3 19 7 24 5 5 13 8 26 8l35 0 0 60c-12 1-29 2-51 2-26 0-46-7-62-23-15-15-23-36-23-64l0-49-57 0 0-66 57 0 0-170-152 0c-23 0-42 8-58 24-16 16-24 35-24 58l0 274c0 23 8 42 24 58 16 16 35 24 58 24z"/>
<glyph glyph-name="bubble-3" unicode="&#100;" d="M139 320c17 0 32-14 32-32 0-18-15-32-32-32-18 0-32 14-32 32 0 18 14 32 32 32z m106 0c18 0 32-14 32-32 0-18-14-32-32-32-17 0-32 14-32 32 0 18 15 32 32 32z m107 0c18 0 32-14 32-32 0-18-14-32-32-32-18 0-32 14-32 32 0 18 14 32 32 32z m75 171l-363 0c-35 0-64-29-64-64l0-256c0-36 43-43 64-43l0-128 192 128 171 0c35 0 64 29 64 64l0 235c0 35-29 64-64 64z m21-299c0-12-10-21-21-21l-192 0-128-107 0 107-43 0c-12 0-21 9-21 21l0 235c0 11 9 21 21 21l363 0c11 0 21-10 21-21z"/>
<glyph glyph-name="mai2" unicode="&#106;" d="M0 448l0-381 512 0 0 381z m452-34l-180-185c0 0-19-12-32 3l-177 182z m-414-28l123-126-123-131 0 257z m25-285l127 131c0 0 34-43 66-41 0 0 37-5 66 41l130-128z m414 25l-126 131 126 129z"/>
<glyph glyph-name="kakw2" unicode="&#112;" d="M340 359c-2 1-4 2-6 2-1 0-3-1-4-1-1-1-2-1-3-2-1-1-2-3-3-4 0-2 0-4 0-5 0-2 0-4 0-6 1-1 2-3 3-4 1-1 2-1 3-2 1 0 3-1 4-1 2 0 4 1 5 2 2 0 3 2 4 4 1 2 2 4 2 7 0 2-1 4-1 6-1 2-2 3-4 4z m-45 0l-5-14 11 0z m-39 89c-141 0-256-80-256-178 0-84 84-154 197-173-9-31-25-68-49-87 47 0 92 44 124 83 134 5 240 83 240 177 0 98-115 178-256 178z m22-113c1 1 1 2 1 2l10 23c0 0 0 1 1 2 0 1 0 2 1 2 0 1 1 1 2 2 0 0 1 0 2 0 1 0 2 0 3 0 0 0 1-1 2-2 0 0 0-1 1-2 0 0 0-1 1-2l9-22c1-2 1-3 1-4 0 0 0-1-1-2 0-1-1-1-2-1-1 0-1 0-2 0 0 1-1 1-1 1 0 0 0 1-1 2 0 0 0 1-1 1l-1 5-16 0-2-5c0-1-1-2-1-3-1-1-2-1-3-1-1 0-1 0-2 1-1 0-1 1-1 2 0 0 0 1 0 1z m-76 0c0 1 0 2 0 2l10 23c0 0 0 1 1 2 0 1 1 2 1 2 1 1 1 1 2 2 1 0 2 0 3 0 1 0 2 0 2 0 1 0 1-1 2-2 0 0 1-1 1-2 0 0 1-1 1-2l10-22c1-2 1-3 1-4 0 0 0-1-1-2-1-1-2-1-3-1 0 0-1 0-1 0-1 1-1 1-1 1-1 0-1 1-1 2-1 0-1 1-1 1l-2 5-15 0-2-5c-1-1-1-2-2-3 0-1-1-1-2-1-1 0-2 0-3 1-1 0-1 1-1 2 0 0 1 1 1 1z m-36 27c0 1 0 3 1 3 0 1 1 1 2 1 1 0 3 0 3-1 1-1 1-2 1-3l0-12 15 14c1 1 1 1 2 2 0 0 1 0 2 0 1 0 2 0 3-1 0 0 1-1 1-2 0-1-1-2-2-3l-9-8 10-14c1-1 2-1 2-2 0-1 1-2 1-2 0-1-1-2-1-2-1-1-2-1-3-1-1 0-2 0-3 1 0 0-1 1-1 1-1 1-1 1-2 2l-9 12-6-5 0-7c0-2 0-3-1-3-1-1-2-1-3-1-1 0-1 0-2 0 0 1-1 1-1 2 0 0 0 1 0 1 0 1 0 2 0 3z m-40-73l0-70c0-4-1-7-3-9-2-2-5-3-8-3-3 0-6 1-8 3-2 2-3 5-3 9l0 70-23 0c-4 0-7 0-8 2-2 1-3 3-3 6 0 2 1 4 3 6 2 1 5 2 8 2l68 0c3 0 6-1 8-3 2-1 3-3 3-6 0-2-1-4-3-5-2-2-5-3-8-3l-23 0z m124-80c-2-1-4-2-7-2-2 0-3 0-4 0-2 1-3 2-3 3-1 1-2 2-3 4-1 2-2 4-2 5l-5 12-43 0-5-12c-2-5-4-8-5-10-2-2-4-2-7-2-3 0-5 1-8 2-2 2-3 4-3 7 0 1 1 2 1 4 1 1 1 3 2 6l27 62c1 2 2 4 3 6 1 3 2 5 3 7 2 2 3 3 5 4 2 1 5 1 8 1 3 0 5 0 7-1 2-1 4-2 5-4 1-2 2-4 3-5 1-2 2-5 3-8l28-62c2-5 3-8 3-10 0-2-1-5-3-7z m16 124c-1 1-1 1-1 2l-9 12-6-5 0-7c0-2-1-3-1-3-1-1-2-1-3-1-1 0-2 0-2 0-1 1-1 1-1 2-1 0-1 1-1 1 0 1 0 2 0 3l0 25c0 1 0 3 1 3 1 1 2 1 3 1 1 0 2 0 3-1 1-1 1-2 1-3l0-12 15 14c0 1 1 1 1 2 1 0 2 0 3 0 1 0 2 0 2-1 1 0 1-1 1-2 0-1 0-2-2-3l-9-8 11-14c1-1 1-1 2-2 0-1 0-2 0-2 0-1 0-2-1-2-1-1-1-1-2-1-1 0-2 0-3 1-1 0-2 0-2 1z m76-123c-2-1-5-2-8-2l-52 0c-4 0-8 1-10 3-2 2-3 5-3 9l0 74c0 4 1 7 3 9 2 2 4 3 8 3 3 0 5-1 7-2 2-2 3-5 3-9l0-70 44 0c3 0 6-1 8-3 1-1 2-3 2-6 0-2-1-4-2-6z m9 131c0-2-2-4-3-5-2-2-4-3-6-4-2-1-5-1-8-1-3 0-6 0-8 1-2 1-4 2-6 4-1 1-3 3-3 5-1 3-2 5-2 7 0 3 1 6 2 8 0 2 2 4 3 5 2 2 4 3 6 4 2 1 5 1 8 1 3 0 7-1 10-2 2-2 4-4 6-6 1-3 2-6 2-10 1-2 0-5-1-7z m94-132c-1-1-4-2-7-2-3 0-5 0-7 2-2 1-3 2-5 4-1 2-3 4-3 6l-26 35-17-15 0-20c0-4-1-7-3-9-2-2-5-3-8-3-2 0-3 1-5 1-2 1-3 2-4 4-1 1-1 3-1 4-1 2-1 4-1 7l0 71c0 4 1 7 3 9 2 2 5 3 8 3 3 0 6-1 8-2 2-2 3-5 3-9l0-34 42 40c2 2 3 3 5 4 1 1 3 1 5 1 3 0 6 0 8-2 2-2 3-4 3-6 0-3-2-6-5-8l-26-23 30-39c2-3 3-5 5-7 1-2 1-4 1-6 0-3-1-4-3-6z m-257 37l32 0-16 40z m31 113l-6-14 11 0z"/>
<glyph glyph-name="hlp2" unicode="&#113;" d="M463 128c0 0 48 33 49 105 0 0-4 74-64 100 0 0 26-98-69-180 0 0-65-54-126-54 0 0 91-35 157 0 0 0 23-28 99-20 0 0-40 9-46 49z m-59 179c-18 155-220 149-220 149-187-23-184-154-184-154-4-79 67-120 67-120 5-39-41-59-41-59 70-19 128 25 128 25 31-10 66-5 66-5 203 27 184 164 184 164z m-272-56l-20 0 0 38-41 0 0-38-20 0 0 92 20 0 0-37 41 0 0 37 20 0 0-92z m79 0l-56 0 0 92 54 0 0-16-34 0 0-22 31 0 0-16-31 0 0-22 36 0z m71 0l-55 0 0 92 20 0 0-76 35 0z m71 40c-7-6-16-8-27-8l-11 0 0-32-20 0 0 92 33 0c23 0 36-10 36-29 0-10-4-17-11-23z m-28 37l-9 0 0-30 8 0c12 0 18 5 18 15 0 10-6 15-17 15z"/>
<glyph glyph-name="wech2" unicode="&#114;" d="M370 298c-152-5-147-105-147-105-5-110 135-121 135-121 13-42 70-52 70-52-28 27-28 58-28 58 105 6 111 96 111 96 10 117-141 124-141 124z m-51-91c-10 0-18 8-18 18 0 11 8 19 18 19 10 0 18-8 18-19 0-10-8-18-18-18z m88-2c-10 0-18 8-18 18 0 11 8 19 18 19 10 0 17-8 17-19 0-10-7-18-17-18z m-163 72c65 57 160 36 160 36-16 154-199 148-199 148-189 2-205-145-205-145-9-144 157-163 157-163-9-57-43-75-43-75 44-9 94 63 94 63 0 0-29 79 36 136z m30 114c15 0 27-12 27-27 0-15-12-27-27-27-15 0-27 12-27 27 0 15 12 27 27 27z m-132-51c-15 0-27 12-27 27 0 15 12 27 27 27 15 0 27-12 27-27 0-15-12-27-27-27z"/>
<glyph glyph-name="sfe-acc" unicode="&#103;" d="M509 422l-19 61c-59-39-172-38-236 29-63-67-176-68-235-29l-19-61c0 0 33-15 29-76-17-293 184-318 226-346 41 28 242 53 225 346-4 61 29 76 29 76z m-279-312c-39 53-86 93-118 106l76 50 37-78c0 0 61 158 156 211-2-38-12-71 5-111-42-9-128-123-156-178z"/>
<glyph glyph-name="prom2" unicode="&#105;" d="M502 465l-79 0 0 14c0 37-30 33-30 33-60-10-96-47-96-47l-80 0c-24 22-50 33-50 33-60 27-70 6-70 6-12-10-9-39-9-39l-78 0c-11 0-10-9-10-9 0 0 0-88 0-98 0-9 10-9 10-9l158 0c-2-2-17-37-17-37l-119 0c-12 0-9-15-9-15l0-286c0-11 10-11 10-11 0 0 179 0 189 0 11-1 11 9 11 9l-1 298 24 46 23-59 0-283c0-10 10-11 10-11l188 0c9 0 11 10 11 10l0 283c0 18-15 19-15 19l-120 0-15 36 163 0c9 2 11 10 11 10l0 96c-1 10-10 11-10 11z m-355-88c-32-14-29 10-29 10-3 9-3 62-3 62-9 30-2 40-2 40 53-5 98-50 98-50-6-23 3-37 3-37z m40-116c0 0-5 14-15 18-10 4-24-3-24-3l61 99 17 7 12-7z m69 118c-21 0-38 18-38 40 0 22 17 39 38 39 21 0 38-17 38-39 0-22-17-40-38-40z m105-110c0 0-17 5-26 2-8-2-18-18-18-18l-46 123c0 0 13 5 13 9l18-8z m38 206c0 0-4-55-5-81 0 0 2-26-18-20-20 5-48 12-76 29 0 0 6 22 1 34 0 0 59 55 95 51 1 0 5 1 3-13z"/>
<glyph glyph-name="vip2" unicode="&#115;" d="M131 169l253 0 0-21-253 0z m125 342c-141 0-256-115-256-256 0-140 115-255 256-255 141 0 256 115 256 255 0 141-115 256-256 256z m0-461c-114 0-206 92-206 205 0 114 92 206 206 206 114 0 206-92 206-206 0-113-92-205-206-205z m115 235c0 0 0-30 13-42 0 0 10-21-25-18 0 0-33 3-22 25 0 0-51-44-68 19l33 44-47 63-45-64 37-45c0 0-19-58-69-18 0 0 8-22-27-26 0 0-37 5-20 20 17 16 12 42 12 42 0 0-40 28-70 33l56-141 256 0 56 142c0 0-64-17-70-34z"/>
<glyph glyph-name="dept2" unicode="&#116;" d="M46 55c0-9 6-17 13-17l64 0c7 0 13 8 13 17l0 17-90 0z m325 0c0-9 6-17 13-17l64 0c7 0 13 8 13 17l0 17-90 0z m-86 295c-1 14-11 8-11 8l-24-7c-45 30-87-12-87-12 0 0-15-17-17-38-1-19 10-41 10-41 10-25 43-32 43-32 50-12 74 25 74 25 27 42 5 71 5 71z m-285 136l0-389 512 0 0 389z m219-320c-70 0-126 56-126 125 0 69 56 126 126 126 70 0 126-56 126-126 0-69-56-125-126-125z m219 78c0-6-5-11-11-11l-25 0c-5 0-10 5-10 11l0 96c0 6 5 11 10 11l25 0c6 0 11-5 11-11z"/>
<glyph glyph-name="angle-right" unicode="&#117;" d="M335 238c0-3-1-5-3-7l-133-133c-2-2-5-3-7-3-2 0-5 1-7 3l-14 14c-2 2-3 4-3 7 0 2 1 5 3 6l112 113-112 112c-2 2-3 4-3 7 0 2 1 4 3 6l14 14c2 2 5 3 7 3 2 0 5-1 7-3l133-133c2-2 3-4 3-6z"/>
<glyph glyph-name="livebet1" unicode="&#119;" d="M259 219c34 0 62 26 62 59 0 7-2 13-4 19-4-1-8-2-12-2-22 0-40 18-40 39 0 1 0 2 0 2-2 1-4 1-7 1-34 0-62-27-62-59 0-33 28-59 63-59z m-2-70c72 0 130 59 129 131 0 72-58 130-129 130-72 0-130-59-130-130 0-73 58-131 130-131z m1 220c9 0 17-1 25-3 6 3 14 6 22 6 22 0 40-17 40-38 0-5-1-9-2-13 7-13 11-27 11-43 0-50-42-91-95-91-53 0-96 41-97 91 0 50 43 91 96 91z m231 133l-461 0c-5 0-10-5-10-10l0-464c0-5 5-10 10-10l461 0c6 0 10 5 10 10l0 464c0 5-4 10-10 10z m-413-74c0 6 4 11 10 11l338 0c6 0 10-5 10-10l1-295c0-6-5-10-11-10l-337-1c-6 0-11 5-11 11z m348-357l-337-1c-6 0-11 5-11 11l0 10c0 6 5 10 11 10l337 0c6 0 11-4 11-10l0-10c0-6-5-10-11-10z"/>
<glyph glyph-name="livecasino1" unicode="&#118;" d="M256 512c-141 0-256-115-256-256 0-141 115-256 256-256 141 0 256 115 256 256 0 141-115 256-256 256z m65-27c0 0 66-17 101-56l-66-69c0 0-33 27-59 32z m-131 1l25-92c0 0-40-14-58-34l-67 68c0 0 49 49 100 58z m-164-286c0 0-18 67 0 115l92-24c0 0-8-42 1-66z m165-171c0 0-66 18-99 58l67 67c0 0 32-27 58-32z m-51 228c0 65 52 118 116 118 64 0 116-53 116-118 0-65-52-117-116-117-64 0-116 52-116 117z m181-228l-25 91c0 0 40 15 58 35l67-69c-1 0-49-49-100-57z m73 196c0 0 9 42 1 67l93 22c0 0 17-67-2-115z m-80-17l-37 38c6 7 0 24 0 24l38 38c8-1 14 4 14 4 9 8 0 22 0 22-24 14-28-13-28-13l-38-39c-6 6-23 1-23 1l-36 36c-1 29-27 15-27 15-17-23 13-28 13-28l39-36c-7-10 0-24 0-24l-40-38c-24-1-12-25-12-25 26-16 27 15 27 15l38 36c10-8 22 0 22 0l39-40c3-31 27-12 27-12 12 26-16 26-16 26z"/>
<glyph glyph-name="affi" unicode="&#65;" d="M195 398l122 0 0-359-122 0z m-182-125l122 0 0-234-122 0z m363 208l122 0 0-442-122 0z"/>
<glyph glyph-name="laptop-alt" unicode="&#104;" d="M36 126l0 293c1 17 10 35 30 35 0 0 379 0 379 0 0 0 1 0 1 0 20-3 39-20 39-40l0-288 16 0c1 0 1 0 2 0 7-2 9-5 9-11 0-6 0-12 0-18 0-23-20-38-43-38-61-2-122-1-183 0l-9 0-7 0-231 0c-17 1-35 13-38 33-1 9-2 19 1 27 0 0 3 6 7 7 1 0 2 0 3 0z m250-46c60 0 119-1 178 0 12 0 27 1 27 16 0 0 0 9 0 9l-469 0c0-5 0-11 1-15 3-6 11-9 17-10 0 0 230 0 230 0 5 0 11 0 16 0z m178 46c0 96 2 192 0 288-1 11-13 16-20 18l0 0c-126 0-253 5-378 0-6 0-8-8-8-13l0-293z m-35 24l-342 0c-4 0-5 2-7 3-6 6-2 18 7 19l342 0c0 0 0 0 1 0 8-2 12-13 6-19-2-1-3-3-7-3z m-105 234c14 0 26-12 27-27 0-39 0-79 0-118-1-14-13-27-27-27-44 0-88 0-132 0-14 0-26 12-27 27 0 39 0 79 0 118 1 14 13 27 27 27 44 0 88 0 132 0z m-131-21c-3 0-6-3-6-6-1-39 0-78 0-118 0-3 2-5 6-5 43-1 87 0 130 0 4 0 6 2 6 5 0 39 0 79 0 118 0 3-2 6-5 6-44 0-88 0-131 0z"/>
<glyph glyph-name="laptop" unicode="&#120;" d="M473 46l-434 0c-3 0-4 1-5 1-22 8-32 37-34 64 0 0 1 12 11 13l155 0c6-1 7-2 9-4l9-12 143 0 10 12c3 4 5 4 8 4l156 0c0 0 1 0 3-1 11-3 8-8 7-15-2-23-10-48-30-59-3-2-6-3-6-3-1 0-1 0-2 0z m-312 56l-138 0 0-1c2-13 7-28 18-33 0 0 430 0 430 0 11 5 15 20 18 34 0 0-139 0-139 0l-9-11c-2-2-4-4-9-4l-153 0c-5 0-6 1-8 4z m-99 256l0-213c0 0-8-18-18-8-2 2-4 5-4 8l0 224c1 6 5 10 11 11l81 0c0 0 1 0 1 0 15-2 11-14 7-19-2-2-5-3-8-3z m399 22c6-1 10-6 10-11l0-224c0-8-12-14-18-8-2 2-3 4-3 8l0 213-70 0c0 0-10 2-11 9-1 6 3 12 11 13l80 0c1 0 1 0 1 0z m-137 86c18-1 34-16 34-34 1-79 1-158 0-236 0-18-15-34-34-35-46 0-91 0-136 0-18 1-34 16-35 35 0 78 0 157 0 236 1 17 16 33 35 34 45 0 90 0 136 0z m-136-22c-7 0-13-6-13-13 0-78-2-157 0-235 0-7 6-13 13-13 45-1 90-1 136 0 6 0 12 6 13 13 1 78 1 157 0 236-1 6-6 12-13 12-45 1-91 0-136 0z m70-48c3-1 6-2 8-5 12-20 24-39 36-58 7-12 7-27 0-39 0 0-36-57-36-57 0 0-2-3-4-4-4-3-10-2-14 4-11 17-22 34-32 51-10 16-10 35 0 51 0 0 32 52 32 52 0 0 5 5 10 5z m-24-68c-5-9-5-20 0-29l23-36c9 14 18 28 27 42 3 5 3 12-1 17l-26 43c-8-13-15-25-23-37z"/>
<glyph glyph-name="chips" unicode="&#121;" d="M335 273c43 0 87-9 123-30 3-2 6-4 6-4 3-3 4-6 4-9 0-1 0-2 0-3l0-188c0-4-4-8-8-9-5-5-14-9-22-12-63-26-137-22-200 1-4 1-10 4-10 4-6 3-6 5-6 7-1 1-1 3-1 4-1 1-1 3-2 5l0 182c1 3 1 4 1 5 1 2 3 4 5 5 0 2 2 5 5 8 25 27 68 34 104 34z m110-188c-3-2-7-4-11-6-60-25-131-22-192 0l0 0 0-37c65-26 141-28 200 3 1 0 2 1 3 2z m-397 384c0 3 2 6 5 9 26 27 69 34 106 34 42 0 86-9 122-30 3-2 6-4 6-4 4-3 5-15 5-17l0-168c-1-3-1-4-2-5-4-9-21-7-21 5l0 24c-4-2-8-4-11-5-60-26-131-22-191-1l0-38c1 0 2-1 2-1 39-15 82-22 123-17l0-23c-42-4-86 3-125 17l0-40c0 0 0-1 0-1 39-16 84-23 125-18l0-22c-42-5-86 2-125 16l0-39c0 0 0 0 0 0 40-17 84-24 125-19l0-21c-12-1-25-1-37-1-30 1-60 6-88 16l0-29c34-20 76-26 116-26 0 0 14-4 11-15-3-10-18-8-31-7-40 2-82 9-114 33 0 0-4 3-5 6 0 1 0 2 0 3l0 376c0 3 1 6 4 8z m397-321c-3-2-7-4-11-5-60-26-131-22-192 0l0 0 0-40c2 0 3 0 4-1 63-25 139-28 194 5 3 2 3 3 5 3z m0 26l0 37 0 0c-31-15-66-23-100-24l-1 0c-9 0-17 1-26 2-26 3-52 10-76 22l0 0 0-44c1 0 3-1 4-1 63-25 139-28 194 5 3 2 3 3 5 3z m-111 76c0 0 0 0-1 0-27 0-56-4-79-20 29-12 61-19 92-19l0 0c16 0 31 1 46 5 14 4 27 8 40 14l0 0c-30 14-64 20-97 20 0 0 0 0 0 0z m-65 131c-4-2-8-4-11-6-60-25-131-22-191 0l0-39c1-1 2-1 2-1 64-25 139-28 194 5 4 2 4 2 6 3z m0 69c-40-19-84-27-128-22-25 4-51 10-74 21l0-50c1 0 2 0 2-1 63-24 139-27 194 5 4 2 3 3 6 4z m-112 39c-28 0-57-4-79-20 44-19 93-25 139-13 13 3 26 8 39 13l0 0c-30 14-64 20-97 20-1 0-2 0-2 0z"/>
<glyph glyph-name="artboard1" unicode="&#122;" d="M258 508c63 0 125-25 171-68 76-71 102-193 55-291-41-84-131-142-226-143-106 0-209 73-241 178-18 61-12 130 17 187 41 81 130 136 221 137 1 0 2 0 3 0z m86-29l-83-62c-2-1-4-2-7 0l-86 61c-27-11-52-27-73-47-12-11-22-23-31-36l29-94c1-4 0-5-2-7l-71-51c2-30 9-60 22-88 7-15 16-29 26-42l95-3c4 0 5-2 6-5l23-76c20-6 42-10 65-10 23 0 46 4 68 11l23 86c1 3 3 4 6 4l101 6c19 28 33 61 38 97 1 6 1 11 2 17l-79 64c-3 2-3 4-2 7l34 89c-8 10-17 21-27 30-22 21-48 38-77 49z m-265-379c27-30 60-52 98-66l-19 63z m280 8l-19-73c40 16 77 42 105 77z m-41 51l-122 0c-4 1-5 2-6 5l-37 116c-1 3-1 5 2 7l99 71c2 2 2 2 4 2 2-1 2-1 3-2l99-71c3-3 3-4 2-7l-38-116c-1-3-2-4-6-5z m-152 120l35-107 113 0 34 107-91 66c-30-22-60-44-91-66z m261 32l68-55c0 46-13 92-38 131z m-372 70c-22-36-34-79-35-122l60 43z m275 103c-23 7-47 11-71 11-1 0-2 0-2 0-25 0-50-4-74-12l74-53z"/>
<glyph glyph-name="15bet" unicode="&#66;" d="M257 512c64 0 128-25 174-69 78-73 104-197 56-297-41-86-133-146-230-146-108 0-213 74-246 181-19 63-13 133 17 191 42 83 131 139 226 140 1 0 2 0 3 0z m68-481l24 78-54 61-76 2-59-59 24-79c37-12 76-16 115-9 9 2 17 4 26 6z m166 216l-76 58-73-36-36-80 63-70 78 0c8 11 15 22 21 35 14 29 21 60 23 93z m-402 51l-67-46c1-33 8-66 22-97 6-11 12-22 19-32l79 0c0 2 1 3 2 4l55 55-21 79-89 37c0 0 0 0 0 0z m87 178c-30-10-57-27-80-49-10-9-19-19-26-29l25-80c1 0 1 0 2 0l90-37 55 47c0 1 0 2 0 4l0 90c0 2 0 2 0 3 0 1 0 1 1 1z m161 0l-74-53c0-1 0-1 0-1l0-90c0-1 0-2 0-3l61-45 96 47 25 65c-28 36-65 64-108 80z"/>
<glyph glyph-name="mobile-1" unicode="&#67;" d="M399 437c1-135 1-270 0-405 0-17-14-31-31-32-75 0-149 0-224 0-16 1-31 15-31 32-1 149-1 299 0 448 0 17 14 31 31 32 75 0 149 0 224 0 16-1 31-15 31-32 0-13 0-26 0-40 1-1 1-2 0-3z m-20-338l-246 0c0-22 1-45 1-67 0-5 5-10 10-10 75-2 149-2 224 0 5 0 10 5 10 10 0 22 1 45 1 67z m-98-45l-58 0c-11 0-17 21 0 21 19 0 39 1 59 0 10 0 15-21-1-21z m-147 375c-1-103-2-206-1-308l246 0c1 102 1 203 0 305z m244 19c0 10 0 21 0 32 0 5-5 10-10 10-75 2-149 0-223 0-6 0-11-5-11-10 0-10 0-20 0-30z"/>
<glyph glyph-name="owsports" unicode="&#68;" d="M257 512l0 0 0 0c33 0 66-7 96-19 1 0 2-1 3-1 28-12 53-29 75-50 12-11 23-23 32-37 2-1 4-3 5-5 30-45 46-99 44-153 0-2-1-3-1-5-2-33-9-66-24-96-6-14-14-27-23-39 0-1-1-1-1-2-31-43-75-75-125-92-2 0-3 0-4 0-25-8-51-13-77-13-29 0-58 5-85 15-2 0-3 0-5 1-1 0-3 1-5 2-39 15-74 41-102 73 0 0-2 2-3 5-20 25-36 54-46 85-7 22-10 45-11 68 0 1 0 2 0 2 0 2 0 3 0 5 0 26 4 51 11 75 5 14 10 27 16 40 2 3 4 6 5 9 3 5 5 9 8 13 1 2 2 5 4 6 29 43 72 77 121 96 1 1 3 1 5 2 3 1 5 2 8 3 23 7 47 11 71 12 1 0 3 0 5 0 0 0 1 0 2 0 0 0 0 0 1 0z m-89-38c-27-11-51-27-73-47-12-11-23-24-32-38l23-96c2-6 1-8-4-11l-60-37c1-31 8-62 22-90 8-16 17-32 29-45l83-6c0 0 6-2 8-6 1-1 1-1 1-2l16-62c23-8 49-13 74-13 24 0 47 4 69 11l14 70c2 6 3 7 9 8l101 12c21 29 35 63 41 100 0 6 1 13 1 19l-72 53c-5 4-5 5-4 11l30 91c-8 11-16 21-26 30-20 19-43 34-68 45l-96-60c-6-3-8-3-13 1z m189-384l-10-49c31 13 59 33 82 58z m-263-3c18-18 39-32 62-43l-9 39z m221 60l-124 0c-4 1-8 4-10 8l-38 118c-1 4 0 9 4 11l100 73c3 2 3 2 7 2 2 0 4-1 5-2l100-73c4-2 6-7 4-11l-38-118c-2-4-5-7-10-8z m-150 125l34-103 108 0 34 103-88 64c-29-22-59-43-88-64z m272 34l53-39c-1 37-13 74-31 107z m-390 57c-14-29-23-61-25-93l42 26z m210 128l-2 0-1 0 0 0c-21 0-43-4-63-9l58-49 76 47c-18 6-37 9-56 11l0 0-1 0c-4 0-8 0-11 0z"/>
<glyph glyph-name="promotion" unicode="&#69;" d="M114 366c-1 1-2 1-3 2-22 13-40 35-38 62 2 21 13 41 26 56 12 14 28 25 48 26 0 0 1 0 1 0 30 0 54-26 69-47 20-28 34-61 42-95l0 0c10 40 24 82 50 111 13 15 32 25 53 23 32-4 64-19 80-48 10-16 14-39 3-55-11-15-27-26-44-35l40 0 0 0c17-1 33-15 34-34 0-31 0-62 0-93 0-12-10-24-23-25 0-57 0-114 0-171-1-21-19-40-42-42 0 0 0 0-1-1-97 0-193-1-289 0-10 1-21 5-28 12-6 7-9 17-9 26l0 177-19-1c-14 0-27 11-27 25l0 101c0 2 0 0 1 5 4 14 21 21 37 21z m54-23c-31 0-63 0-94 0 0 0-1 0-1 0-1 0-2 0-3 0 0 0-1 0-2 0 0-1-1-1-1-1-1 0-1 0-2 0-2-1-5-4-5-4 0-33-1-66 0-99 0-1 4-2 4-2l120 5c0 0 6 0 9-4 5-6 2-16-6-18-1-1-1-1-2-1l-79-3c0-60-2-119 0-178 0-1 0-2 1-3 0-4 2-8 6-10 2-1 5-1 8-1 95-1 191 0 287 0 10 1 21 8 21 19l0 171-104 0c-8 0-9 3-10 7-3 6 2 15 10 16 38 0 76-1 113-1 1 0 1 1 2 1 0 0 1 0 2-1 2 0 5 1 7 1 2 0 3 2 3 2 0 31 0 62 0 93 0 6-6 10-12 11l0 0c-30 0-60 0-89 0-24-9-50-16-76-18l-1-1c4-50 11-102 30-148 13-31 33-64 65-69 11-1 9 0 12-1 10-3 10-22-6-22-41-2-75 40-94 87-14 35-21 72-26 110-8-26-19-50-36-70-16-17-36-32-55-46 0 0-11-10-18-4-5 4-6 12-2 17 3 4 6 5 9 7 24 18 48 36 63 62 15 24 25 54 25 80l0 0c-24 5-49 9-73 16z m68 23c-9 40-27 79-54 105-10 10-21 18-35 18-25-1-41-31-47-46-6-14-4-30 6-41 16-19 42-28 68-36z m113 0c21 9 41 20 60 33 7 5 15 10 18 18 11 30-35 65-73 64-17 0-28-14-36-26-18-27-28-57-36-89z"/>
<glyph glyph-name="roulette" unicode="&#70;" d="M257 512c64 0 128-26 174-70 78-73 104-197 56-296-41-86-133-146-230-146-108 0-212 73-246 180-19 62-13 132 16 190 42 84 131 141 226 142 1 0 3 0 4 0z m-2-22c-59 0-117-23-160-63-71-68-94-180-51-272 44-92 151-149 255-129 95 17 175 97 189 197 10 73-16 151-70 202-42 41-100 64-159 65-1 0-3 0-4 0z m-155-80c17 19 38 34 62 45 29 14 62 21 95 21 0 0 0 0 1 0 0 0 0 0 0 0 58 0 114-26 155-66 1-1 2-2 3-3 16-17 29-35 38-56 31-63 29-142-6-203-45-80-142-126-233-109-45 9-85 32-117 64-2 2-3 3-4 5-30 33-51 74-57 120-8 63 14 129 57 177 1 2 3 4 6 5z m216-324c-15-5-31-9-47-10l0-18c8 0 16 1 24 3 11 2 22 5 32 9-3 5-6 11-9 16z m-121 0c-3-5-5-11-8-15 19-8 39-12 60-13l0 17c-9 1-18 2-26 3-9 2-18 5-26 8z m183 37c-13-11-26-20-41-28 3-5 6-10 9-16 16 9 31 20 45 32-4 4-9 8-13 12z m-244 0c-5-4-9-8-13-12 13-12 29-23 46-31 2 5 5 9 8 14-15 8-29 18-41 29z m121 292c-58 0-114-34-141-86-22-43-23-97-2-141 30-63 104-102 175-88 65 12 118 69 127 135 7 50-12 103-50 138-28 27-68 42-107 42-1 0-1 0-2 0z m-161-240c-6-2-11-4-17-6 2-4 4-7 6-11 6-11 14-22 22-31 5 4 9 8 14 11-10 12-19 24-25 37z m324 0c-7-13-15-25-25-36 4-4 9-8 13-12 11 13 21 27 28 42-5 2-11 4-16 6z m-141 163c-12 18-2 48 24 49 1 0 1 0 1 0 20 0 37-24 27-44-5-11-19-18-32-16-1-3-2-7-3-10 0 0-5-20-2-35 4-21 20-38 39-46 5 6 13 10 22 10 0 0 0 0 1 0 20 0 36-24 27-44-9-17-35-22-49-8-6 5-9 13-8 22-21 5-44 9-63 1-14-6-25-19-31-34 10-8 16-24 9-38-12-21-51-19-57 8-4 17 9 35 27 37 1 2 2 5 2 5 8 18 15 39 9 55-5 11-15 19-26 24 0 0-7 2-15 6-11-11-31-13-42-1-17 16-8 52 20 52 1 0 1 0 1 0 16 0 29-15 30-30 4-2 9-4 13-6 0 0 12-3 22-2 21 1 41 12 50 31 0 0 2 8 4 14z m-65-169c-8-1-13-14-4-17 1-1 3-1 4-1 5 0 10 6 8 11-1 4-4 7-8 7z m224 74c-1-16-4-32-10-48 6-2 11-4 17-6 1 4 3 8 4 13 4 13 6 27 7 41-6 0-12 0-18 0z m-378 0c1-18 5-37 11-54 5 2 11 4 16 6-5 16-8 32-9 48-6 0-12 0-18 0z m295-19c-8 0-12-13-3-17 1 0 2 0 3 0 5 0 10 5 9 11-1 4-5 6-9 6z m-84 63c-11-8-23-13-36-15 0 0-2 2 0-1 8-11 11-25 10-39 13 8 28 11 43 11 0 0 1-1-1 2-9 12-14 27-16 42 0 0 0 0 0 0z m173 36c-5-2-10-4-16-6 6-17 10-34 10-52 6 0 12 0 18 0-1 20-5 39-12 58z m-373 0c-7-19-10-38-11-58 6 0 11 0 17 0 1 18 4 35 10 51-5 3-11 5-16 7z m88-14c-7 0-12-13-3-16 1-1 2-1 4-1 5 0 9 6 8 11-1 4-4 6-9 6z m-52 76c-11-13-20-27-28-42 6-2 11-4 17-6 0 0 0 1 1 1 6 13 14 25 24 36-5 3-9 7-14 11z m301 0c-4-4-8-8-13-11 9-11 17-22 24-35 0-1 1-1 1-2 5 2 10 4 16 6-8 15-17 29-28 42z m-104-20c-8 0-13-13-4-17 1 0 3 0 4 0 5 0 10 5 8 11-1 3-4 6-8 6z m-65 41c10-1 15-19 0-22-24-5-46-16-64-32 0 0-7-5-12-2-6 3-8 13-3 18 4 3 4 3 5 4 21 17 45 29 71 34 0 0 0 0 3 0z m-71 26c-16-8-32-19-45-31 4-4 8-8 13-12 12 11 26 21 41 28-3 5-6 10-9 15z m180 1c-3-5-6-11-9-16 15-8 29-17 41-28 4 4 9 8 13 12-5 5-10 9-15 13-10 8-20 14-30 19z m-77 21l0-17c16-2 32-5 48-11 3 5 6 11 9 16-19 7-38 11-57 12z m-22 0c-21-1-41-5-60-12 3-6 6-11 8-16 17 6 34 10 52 11z"/>
<glyph glyph-name="slot" unicode="&#71;" d="M419 447c35 0 66-30 66-68 0-82 1-164 0-246 0-36-30-68-65-68-109-1-219-1-328 0-34 0-65 31-65 68-1 82-1 164 0 247 0 35 30 67 65 67 109 2 218 1 327 0z m-326-21c-23-1-45-22-45-47 0-82-1-164 0-246 0-24 20-46 45-46 109-1 218-1 326 0 24 0 45 21 45 46 0 82 1 164 0 246 0 24-20 46-45 47-109 0-217 0-326 0z m227-76c7 10 19 17 32 18 21 0 42 0 63 0 22-1 41-20 41-43 1-55 1-110 0-164 0-23-19-43-41-43-21 0-42 0-63 0-12 0-25 7-33 17-7-10-19-17-32-17-21 0-42 0-63 0-12 0-24 6-32 16-7-9-19-16-31-16-21 0-42 0-63 0-22 0-41 19-42 43 0 54 0 109 0 163 0 23 19 43 41 44 21 0 43 0 64 0 12-1 24-7 31-17 8 10 19 16 32 17 21 0 42 0 63 0 13-1 25-7 33-18z m32-4c-10 0-20-10-20-21 0-55 0-109 0-164 0-11 9-21 20-21 21 0 42 0 63 0 11 0 20 9 20 21l0 0c1 55 1 109 0 164 0 11-9 21-20 21-21 0-42 0-63 0z m-128 0c-10 0-20-10-20-21-1-55-1-109 0-164 0-11 9-21 20-21 21 0 42 0 63 0 10 0 20 10 20 21 0 55 0 109 0 164 0 11-9 21-20 21-21 0-42 0-63 0z m-126 0c-11 0-20-10-21-21 0-55 0-109 0-164 1-11 10-21 21-21 21 0 41 0 62 0 11 0 20 10 21 21 0 55 0 109 0 164 0 11-10 21-21 21-20 0-41 0-62 0z m-87-31c6-1 10-5 10-11l0-130c0-8-3-9-7-10-6-2-14 2-14 10l0 130c0 2 0 2 1 3 1 4 4 7 10 8 0 0 0 0 0 0z m491 0c6-1 10-5 10-11l0-130c0-6-2-6-4-8-6-5-17-1-17 8l0 130c0 2 0 2 0 3 2 4 5 7 10 8 1 0 1 0 1 0z m-355-129l-39 0c-5 0-4 0-8 4-9 11 2 32 10 49 3 5 5 10 8 16l-27 0c-2 0-2 0-3 0-5 2-7 5-7 11l0 25c0 2-2-1 0 6 1 4 5 7 10 7l76 0c0 0 0 0 0 0 2 0 3 0 4 0 4-2 6-5 6-11l0-30c0-6-4-11-6-18-5-16-9-32-13-48l-1-3c0-2 0-2-1-3-2-3-4-5-9-5z m127 0l-39 0c-6 0-5 0-8 4-9 11 1 31 9 48 3 6 6 11 9 17l-27 0c-2 0-3 0-4 0-4 2-7 5-7 11l0 25c0 2-1-1 0 6 2 4 5 7 11 7l75 0c0 0 1 0 1 0 2 0 2 0 3 0 4-2 7-5 7-11l0-30c0-6-4-11-7-18-5-16-8-32-12-48l-1-3c-1-2-1-2-2-3-1-3-4-5-8-5z m128 111c12-1 23-8 27-20 7-21-3-44-20-60-6-6-13-11-20-16 0 0-7-4-14 1-13 9-26 19-33 33-9 18-12 41 3 55 10 9 27 9 38 0 0 0 9 7 19 7z m-264-20c5-1 5-2 7-3 4-4 4-10 0-16-10-16-19-32-24-50 0 0 18 0 18 0 5 20 9 42 17 58 0 0 0 16 0 16l-54 0 0-5c12 0 24 0 36 0z m126 0c5-1 6-2 7-3 4-4 5-10 0-16-9-16-19-32-24-50 0 0 18 0 18 0 5 20 9 42 18 58 0 0 0 16 0 16l-55 0 0-5c12 0 24 0 36 0z m138-2c-5 0-10-8-10-8-3-5-5-5-7-5-7-2-11 9-17 12-7 3-14-5-11-17 3-14 14-25 26-34l0 0c13 10 27 23 27 40 0 1 0 1 0 2 0 5-3 10-8 10 0 0 0 0 0 0z m-105-22c1 0 1 0 0 0z m-126 0c1 0 0 0 0 0z m-75 89c9 0 15-15 5-20-7-4-15-6-19 2-3 5-1 12 4 15 4 1 7 3 10 3z m127 0c9 0 14-15 4-20-7-4-18-6-20 5-1 8 9 15 16 15z m128 0c9 0 14-15 5-20-8-5-20-5-21 6 0 8 9 14 16 14z"/>
<glyph glyph-name="chat" unicode="&#72;" d="M148 200c0 0 180 0 180 0 0 0 1 0 3 1 0 0 2 0 2 0 0 0 0-47 0-47 0-14-5-26-15-36-10-10-22-16-36-16 0 0-128 0-128 0 0 0-77-76-77-76 0 0 0 76 0 76 0 0-26 0-26 0-13 0-25 6-36 16-10 10-15 22-15 36 0 0 0 153 0 153 0 15 5 27 15 37 11 9 23 14 36 14 0 0 97 0 97 0 0 0 0-158 0-158m313 286c14 0 26-5 36-14 10-10 15-22 15-37 0 0 0-153 0-153 0-14-5-26-15-36-10-10-22-16-36-16 0 0-26 0-26 0 0 0 0-76 0-76 0 0-77 76-77 76 0 0-179 0-179 0 0 0 0 205 0 205 0 15 5 27 16 37 10 9 22 14 35 14 0 0 231 0 231 0"/>
<glyph glyph-name="owsports-1" unicode="&#111;" d="M362 415c-23 28-48 54-75 78l-1 2c-6 7-1 18 9 17 3-1 3-1 4-2 6-4 12-11 18-16 53-51 103-107 128-177 7-18 10-37 10-56 1-6 0-12-1-18 0-2-1-5-2-8 0 0 0-1-1-2-12-54-85-158-90-159-20-25-42-48-65-70-3-4-8-5-12-3-6 3-8 12-2 17 0 1 1 1 2 2 24 24 47 48 68 75 6 20 11 41 15 63-50-30-107-51-162-68 0 0-9-2-13 5-2 5 1 12 6 14 61 19 121 43 174 76 6 45 8 90 4 136-47 32-101 53-154 73-7 3-15 6-23 9 0 0-6 2-7 7-2 6 4 13 11 13 4-1 8-3 13-4 54-20 109-42 158-72-2 15-5 30-8 46-1 5-2 11-3 16 0 0-1 3-1 6z m52-226c-2-1-3-2-4-3-6-5-13-9-19-14-2-11-4-22-7-33 9 13 18 27 25 41 2 3 3 6 5 9z m-212 3c14-15 32-27 52-34l-25-11c-37 19-67 51-74 92-7 37 8 77 36 104 11 11 25 20 39 28 7-4 16-8 26-12-3-1-6-2-9-3 0-1 0-3 0-4l0-4 21-6 30 10c9 3 21-14 6-19l-32-11c-2-1-5-1-7-1l-31 9c-1 1-2 1-2 2-3 2-5 4-5 8l0 6c-7-4-13-9-19-14l10-8c2-2 4-5 4-9l-3-43c0-3 0-4-1-5l-21-31c-2-2-5-4-8-4l-11 0c2-8 6-16 10-23l5 8c2 3 4 4 8 5 1 0 1 0 1 0 2-1 2-1 3-1l40-13c3-1 4-1 5-3l24-31c6-8-6-24-16-12l-22 28-30 9-3-6c-1 0-1-1-1-1z m-59 7c9-1 14-15 4-20l-56-25c-9-4-22 12-8 18l56 26c1 0 2 1 4 1z m209 28c10-1 14-16 3-20l-29-9c0 0-17-28-17-28-5-8-24-2-17 11l18 30c1 3 3 4 6 5l33 10c1 1 2 1 3 1z m46 78c2-35 0-71-4-106 16 12 31 25 38 42 1 5 2 10 2 15-2 16-17 33-31 45-2 1-4 2-5 4z m-100-89l-42 0c-2 1-2 1-3 1-3 1-5 3-7 6l-18 43c-1 2-1 2-1 3 0 3 1 6 4 9 12 9 24 17 35 26 2 1 4 2 6 2 2 0 4-1 4-1 0 0 48-24 48-24 1 0 2-1 2-2 3-3 4-6 2-11l-20-45c-1-2-1-2-2-3-2-2-5-3-8-4z m-48 51l12-30 30 0 13 31-32 16c-8-6-16-12-23-17z m-127-20l-57 0c-10 0-15 20 0 20 19 0 38 1 57 0 10 0 15-20 0-20z m71 70c-11-14-18-30-20-48-1-6-1-11 0-17l9 0 16 24 2 35c0 0-6 5-6 5 0 0-1 0-1 1z m151 9c5 0 9-4 9-10l0-25c0 0 6-8 6-8 6-8-7-23-16-11l-8 10c-1 2-2 4-2 6l0 28c0 6 4 10 11 10z m45 53c2-16 4-31 6-47 5-4 10-7 14-11 6-5 12-10 18-15-9 26-22 50-38 73z m-303-15c2 0 3 0 4-1l46-23c9-4 5-25-9-18l-46 23c-8 4-6 20 5 19z"/>
<glyph glyph-name="roulette-1" unicode="&#73;" d="M6 208c0 2 0 3 1 5 7 16 25 25 40 32 49 20 102 27 156 29l-2-20c-41-2-82-8-121-19-20-6-42-12-53-27-8-12 16-25 35-33 44-16 92-22 139-24 67-5 136-2 201 11 26 5 53 12 73 26 7 5 15 12 9 20-6 9-16 14-27 18-42 18-88 24-134 27l2 20c44-3 86-9 126-23 26-9 57-22 56-48 0-1 0-2 0-3l0-91c0 0 0 0 0 0 0-1 0-1 0-2l1 0c-3-18-24-31-43-39-43-19-92-26-141-29-81-7-165-4-242 17-27 7-57 17-71 36-3 4-5 8-6 11 0 1-1 3-1 4 0 0 0 0 0 0l0 0 0 0c0 0 0 0 0 0l0 97c0 2 1 3 1 4 0 0 0 1 1 1z m128-71l0-73c23-3 45-5 68-7 59-3 118-2 176 7l0 73c-19-2-37-4-55-6-63-4-127-4-189 6z m-107 33l0-64c0 0 0-1 0-1 5-9 20-17 34-22 16-6 33-11 51-15l0 73c-10 2-20 4-29 7-20 5-41 12-56 22z m458 0c-7-4-14-7-21-10-20-9-42-15-64-19l0-72c1 0 2 0 3 0 26 6 52 12 73 26 3 3 7 6 9 10 0 1 0 2 0 3z m-282 243c0 14 4 28 12 40 10 15 27 24 44 24 0 0 0 0 1 0 28 0 52-26 55-56l103 5c0 0 1 0 1 0 10-1 14-19 0-20l-105-5 0 0c-3-12-10-23-13-33-5-14-5-29-4-44 3-42 6-85 8-128l1-4c0-10-10-18-21-24-22-14-56-12-68 15 0 0-1 2-1 6 4 50 9 100 12 151 1 11-3 23-10 32-3 4-4 5-5 8-3 4-5 8-6 13l-103-5c-5 0-6 1-8 3-5 5-2 16 6 17 1 0 1 0 1 0z m56 42c-20-1-38-23-35-45 1-14 11-23 17-34 6-12 9-25 8-39 0 0-12-146-12-146 10-14 34-9 47 4l1 0c-3 46-6 92-9 138-2 21 3 42 14 60 13 23-2 61-30 62-1 0-1 0-1 0z m89-250c6 0 11-5 11-11 0-6-5-11-11-11-5 0-10 5-10 11 0 6 5 11 10 11z m-151 33l-3-22c-44-3-88-8-128-23-11 3-20 7-27 11 13 7 29 11 44 15 36 10 75 16 114 19z m125-2c1 0 2 0 3 0 48-4 97-10 141-29 2-1 4-2 7-3-7-4-16-8-26-11-14 5-29 9-44 12-26 5-53 9-79 11-1 7-2 14-2 20z"/>
<glyph glyph-name="live-betting" unicode="&#74;" d="M283 257c29 0 55-26 56-56 0-31 0-62 0-93-1-29-26-56-56-56-76-1-151 0-226 0-30 0-56 25-57 56 0 31 0 62 0 93 0 29 26 56 56 56 76 1 151 1 227 0z m-226-21c-18 0-35-16-35-35 0-31 0-62 0-93 0-18 16-34 35-35 75 0 150 0 225 0 18 1 35 16 35 35 0 31 0 62 0 93 0 18-16 34-35 35-75 0-150 0-225 0z m445 21c3 0 3 0 4-1 4-2 6-5 6-9l0-149c0-3 0-4-1-5-3-6-11-9-17-3l-38 37-98 0c0 0-11 2-11 11l0 79c0 2 0 3 0 4 2 4 6 6 11 7l91 0 47 28c0 0 3 2 6 1z m-388-134l-49 0 0 69 14 0 0-58 35 0z m28 0l-14 0 0 69 14 0z m139 0l-53 0 0 69 52 0 0-11-38 0 0-16 35 0 0-12-35 0 0-19 39 0z m-89 0l-15 0-25 69 15 0 18-51 17 51 15 0z m269 26c4 0 5-1 7-3l22-22 0 103c-10-6-21-13-32-19-2-1-3-2-6-2l-84 0 0-57z m-364 312c1-1 2-1 3-1l60-25c3-1 4-2 6-6l25-60c1-3 2-5 0-8l-25-61c-2-4-3-4-6-6l-60-24c-4-2-5-2-8 0l-60 24c-4 2-5 4-6 6l-25 61c-1 2-2 4 0 8l25 60c1 3 2 4 6 6l60 25c3 1 1 1 5 1z m199 0c2-1 2-1 3-1l61-25c2-1 4-2 6-6l24-60c2-4 2-6 0-8l-24-61c-2-4-4-4-6-6l-61-24c-4-2-5-2-8 0l-60 24c-3 2-4 3-6 6l-25 61c-1 4-1 5 0 8l25 60c2 4 3 5 6 6l60 25c1 0 2 1 5 1z m-191-166l33 14-33 32z m200 0l32 14-32 32z m-51 13l30-12 0 43z m-200 1l30-13 0 43z m172 47l13-33 34 33z m-200 0l14-33 33 33z m93 0l33-33 14 33z m200 0l33-33 13 33z m-92 20l43 0-31 31z m-200 0l43 0-30 30z m295 0l42 0-12 30z m-200 0l43 0-13 30z m-17 12l33 33-33 13z m200 0l32 33-32 13z m-251 33l30-30 0 42z m200 0l30-30 0 42z"/>
<glyph glyph-name="live-bet" unicode="&#75;" d="M77 309l0-21c-14-1-28-1-42-1-7 0-13-6-13-12 0-79-2-158 0-236 0-7 6-13 13-13 45-1 90-1 136 0 6 0 12 6 13 13 0 7 0 15 0 22l21 0c0-8 0-15 0-22 0-18-15-34-34-34-45-1-91-1-136 0-18 0-34 15-35 34 0 78 0 157 0 236 1 18 16 34 35 34 14 0 28 0 42 0z m340 0c20 0 41 0 61 0 17 0 33-16 34-34 0-53 0-210 0-236-1-18-16-34-34-34-46-1-91-1-137 0-18 0-34 15-34 34 0 7 0 14 0 22l21 0c0-7 0-15 1-22 0-7 6-13 12-13 46-1 91-1 136 0 7 0 13 6 13 13 2 78 2 157 0 236 0 6-6 12-13 12-20 1-40 1-60 1z m-96 198c42 0 80-36 81-81 0-91 0-182 0-272 0-43-37-81-81-82-49 0-97 0-145 0-42 1-81 38-81 82-1 90-1 181 0 272 0 42 36 81 81 81 48 1 96 1 145 0z m-144-20c-32 0-61-28-62-61 0-91-1-182 0-273 1-31 28-60 61-60 48-1 96-1 145 0 31 0 60 27 60 60 1 91 1 182 0 273 0 32-27 60-60 61-48 0-96 0-144 0z m21-123c1 0 2 0 4-1l120-60c4-2 4-4 5-6 2-4 0-10-5-12l-120-61c-2-1-3-1-4-1-6 0-11 4-11 11l0 120c0 2 0 2 0 3 2 4 5 7 10 7 0 0 0 0 1 0z m9-114l88 44-88 43c0-29 0-58 0-87z"/>
<glyph glyph-name="15bet-1" unicode="&#76;" d="M394 50l-279 0c-6 0-12 5-12 12l6 223-41-21c0 0-10-3-15 3-1 1-1 1-2 2l-50 107c-3 6 0 13 6 16 52 22 104 44 156 65 1 0 2 1 2 1 2 1 3 1 4 1 4 2 9 3 13 3l0 0 0 0c48 0 96 0 143 0l0 0c0 0 1 0 1 0 7 0 15-1 22-4l156-59c7-3 10-11 7-18l-56-106c-4-6-11-8-18-5l-31 18 0-226c0 0-2-10-9-12-2 0-2 0-3 0z m-13 50l-252 0-1-25 253 0z m-41 334c-17-23-35-45-60-60-13-7-28-11-43-8-32 7-58 34-79 62l-129-54 39-82 48 25c0 0 18 3 18-11l-5-181 252 0 0 184c0 8 7 14 16 12 1 0 1 0 3-1l38-22 44 82c-47 18-95 36-142 54z m4-132l-48 0-4-23c5 3 11 4 17 4 12 0 21-4 29-12 8-8 12-19 12-32 0-11-3-21-10-29-8-12-20-18-36-18-12 0-22 3-30 10-8 6-12 15-14 26l26 3c0-6 3-10 6-14 4-3 8-5 12-5 6 0 10 3 14 7 4 4 6 11 6 19 0 9-2 15-6 19-4 4-8 6-14 6-8 0-14-3-20-10l-21 3 13 69 68 0z m-130-108l-25 0 0 96c-9-8-20-15-33-19l0 23c7 2 14 6 22 12 7 7 13 14 16 22l20 0z m97 243l-128 0c16-19 34-39 57-46 25-7 49 19 71 46z"/>
<glyph glyph-name="board" unicode="&#77;" d="M193 325c11 41 23 82 35 122 9 32 40 55 73 56 0 0 1 0 1 0 7 0 14-1 21-3 43-12 86-24 130-37 38-11 63-54 53-94-12-44-25-87-37-130-12-39-55-64-95-53-24 6-48 13-72 20 6-22 11-45 17-67 10-39-15-83-55-94-44-11-88-22-131-33-39-9-83 15-94 55-11 44-22 88-33 131-9 39 14 83 55 94 44 11 87 22 131 33 1 0 1 0 1 0z m-4-22c-41-10-82-20-123-31-28-8-47-39-40-69 11-43 22-87 33-131 8-28 39-47 69-40 43 11 87 22 131 34 28 7 47 38 40 68-6 26-13 52-20 78-11 4-23 7-35 10-34 10-58 45-55 81z m-20-99c16 0 29-13 29-29 0-16-13-29-29-29-16 0-29 13-29 29 0 16 13 29 29 29z m133 278c-25 0-47-17-54-40-13-44-25-87-37-131-8-28 9-60 39-69 43-12 86-25 130-37 28-7 60 10 69 39 12 44 25 87 37 130 7 29-10 61-39 70-43 12-87 25-130 36-5 2-10 2-15 2z m87-191c16 0 29-13 29-29 0-16-13-29-29-29-16 0-29 13-29 29 0 16 13 29 29 29z m-126 46c16 0 29-13 29-29 0-16-13-29-29-29-16 0-29 13-29 29 0 16 13 29 29 29z m86 32c16 0 29-13 29-29 0-16-13-29-29-29-16 0-29 13-29 29 0 16 13 29 29 29z m81 51c16 0 29-13 29-29 0-16-13-29-29-29-16 0-29 13-29 29 0 16 13 29 29 29z m-120 32c16 0 29-13 29-29 0-16-13-29-29-29-16 0-29 13-29 29 0 16 13 29 29 29z"/>
<glyph glyph-name="fish-hunter" unicode="&#78;" d="M378 182c0-1 0-1 0-2-8-19-18-37-31-53 0 0 0-1 1-1l67-19c7-2 7-5 8-8 1-4-1-9-6-12-43-22-86-45-124-76-8-6-15-13-23-7-2 2-4 5-3 9l8 75c-13 0-26 3-38 7-19 6-37 14-55 25 0 0-11-11-11-11 0 0-6-5-12-3-1 1-3 2-4 3-2 3-4 7-6 11-29 62-38 140 2 198 8 11 16 21 26 29 0 0 3 3 7 4 1 0 1 0 2-1l17-2 14 30c0 0 3 6 11 6 73 0 147-44 171-118 8-23 11-48 11-73 0 0-1-11-10-11z m-43-69c-2-2-4-4-6-7-9-9-20-14-33-16l-5-54c29 22 61 40 93 58l-42 12c-6 2-6 4-7 6 0 0 0 1 0 1z m-256-22c13 0 24-9 38-13 20-6 40 3 62 2 7 0 14-4 15-11 1-13-21-21-28-10-22-2-45-7-65 4-9 5-18 9-29 8-15-2-31-6-46-10 0 0-4-6-11-6-4 0-9 4-9 4-1 1 0-1-2 1 0 0-3 6 0 11 0 0-2 0 2 3 5 5 13 6 21 8 17 4 34 9 51 9 0 0 1 0 1 0z m140 240c-2-4-6-6-11-6l-20 4c-27-27-43-64-43-102 0-32 8-63 21-92l0-1 7 7c5 4 10 2 16-1 29-17 60-32 92-32 15 1 27 7 39 20 18 19 33 41 40 67 0 0 3 7 10 8l19 0c-2 56-28 113-82 140-23 12-48 18-74 20l0 0c-4-11-9-21-14-32z m-152-175c16-1 30-17 47-12 0 0 6 1 9-2 7-5 4-16-5-18-14-4-28 1-42 8-6 3-13 4-19-1 0 0-11-3-15 4-5 10 11 21 25 21z m433 12c6 0 7-3 8-5 4-7-5-17-14-21-20-8-43-3-62 3-15 4-32 5-40-7 0 0 0-1 0-1-1-2 0 0-2-3-6-8-24-1-16 13 13 23 47 22 72 14 15-4 33-6 44 2 0 1 1 1 1 1 2 2 0 1 2 2 1 1 3 2 4 2 1 0 2 0 3 0z m-167 115c10-1 13-15 15-26 5-34-14-72-44-85-40-18-91-7-131 6 0 0-5 2-7 6-3 8 4 17 16 13 28-8 58-14 88-12 16 2 32 7 44 22 13 17 18 41 9 61 0 0-4 15 10 15z m136-60c8 0 17-2 25-4 0 0 9-5 8-12-2-6-8-9-16-7-6 2-13 3-19 3 0 0-2-2-4-3-10-5-22 11-8 20 4 3 8 3 14 3z m-202 104c13 0 23-10 23-23 0-13-10-23-23-23-13 0-23 10-23 23 0 13 10 23 23 23z m-163 184c13 0 26-6 34-17 16-23 13-53 9-79 1 0 1 0 1 0 8 2 17 0 24-6 6-4 10-11 14-18 6 12 8 33-8 30 0 0-7 0-10 4-6 7-1 17 12 17 13 1 26-8 29-21 7-22-3-53-22-54-14-1-20 18-27 24-5 5-14 2-20-4-1-2-2-2-4-3-6-2-15 4-14 12 4 22 11 48 4 73 0 1-1 2-1 3-3 10-12 20-25 18 0 0-8-1-11 5-4 7 1 16 13 16 1 0 1 0 2 0z"/>
<glyph glyph-name="slot-1" unicode="&#79;" d="M436 32l-425 0c-6 0-11 4-11 10l0 71c0 3 0 3 1 5l24 48c3 5 4 5 9 5l357 0c0 0 1 0 1 0 4 0 5-1 6-3l45-44c3-4 3-5 3-8l0-74c0-6-4-10-10-10z m-333 21l0 50-82 0 0-50z m21 50l0-50 94 0 0 50z m115 0l0-50 92 0 0 50z m186 0c-1 0-2 0-2 0l-71 0 0-50 73 0z m-384 47l-13-26 385 0-27 26z m347 29l-343 0c-6 1-10 5-11 11l0 214-16 0c0 0-10 2-10 10l0 53c0 6 5 10 10 11l204 0 193 2c1 0 1 0 2 0 9-1 9-5 9-10l0-58c0-6-5-10-10-11l-17 0 0-211c0 0-2-9-8-10-1-1-2-1-3-1z m-166 278l-193 0 0-32 16 0c0 0 9-2 10-8 0-1 0-1 0-3l0-213 323 0 0 211c0 5 4 10 10 10l17 0 0 37z m108-212l-230 0c-12 1-12 21-15 39-4 27-8 54-3 82 3 19 7 37 13 56 2 4 5 8 11 8l221 0c1 0 1 0 1 0 11-1 13-17 16-31 5-22 9-45 7-68-2-26-6-51-10-76 0 0-3-9-11-10z m-10 164l-51 0c0-1 0-2 0-4 6-46 3-93-4-138l56 0c7 36 13 74 6 109-2 11-4 22-7 33z m-73 0l-56 0c-9-46-8-95-2-142l55 0c0 0 0 1 0 2 8 46 12 94 3 140z m-78 0l-56 0c-7-26-14-53-12-79 1-21 4-42 8-63l59 0c-6 47-8 96 1 142z m306-15c-6 1-12 4-16 8-18 17-8 54 21 55 0 0 1 0 1 0 21-1 38-25 28-46-3-5-7-10-13-13l0-76c0-2 0-2 0-3-2-5-5-7-10-8l-60 0 0-15c0-11-21-16-21 0l0 50c0 5 1 6 3 7 2 2 3 4 8 3 6 0 6-1 7-3 2-2 3-4 3-7l0-13 49 0z m5 42c-9-1-14-16-3-21 7-3 18 6 13 15-2 3-6 6-10 6z"/>
<glyph glyph-name="down-open-mini" unicode="&#80;" d="M344 317c8 9 16 9 25 0 9-7 9-15 0-24 0 0-101-98-101-98-7-8-15-8-24 0 0 0-101 98-101 98-9 9-9 17 0 24 9 9 17 9 26 0 0 0 87-79 87-79 0 0 88 79 88 79"/>
<glyph glyph-name="key" unicode="&#82;" d="M368 512c-88 0-160-72-160-160 0-21 4-40 11-58l-194-194c-6-6-9-11-9-20l0-48c0-17 15-32 32-32l48 0c9 0 14 3 20 9l23 23 37 0c18 0 32 14 32 32l0 32 32 0c18 0 32 14 32 32l0 38 38 37c18-7 37-11 58-11 88 0 160 72 160 160 0 88-72 160-160 160z m0-288c-24 0-46 7-65 18l-5-5-18-18-31-31c-6-6-9-14-9-22l0-38-32 0c-18 0-32-14-32-32l0-32-37 0c-9 0-17-3-23-9l-23-23-45 0 0 46 187 186c0 0 0 0 0 0l23 23c-11 19-18 41-18 65 0 71 57 128 128 128 71 0 128-57 128-128 0-71-57-128-128-128z m93 156c-18 25-40 47-65 65-4 3-9 4-14 2-22-8-37-23-45-45-1-2-1-4-1-5 0-3 1-7 3-9 18-25 40-47 65-65 4-3 9-4 14-2 22 8 37 23 45 45 1 2 1 3 1 5 0 3-1 7-3 9z m-48-44c-24 17-44 37-61 61 6 17 18 29 35 35 24-17 44-38 61-61-6-17-18-29-35-35z"/>
<glyph glyph-name="lock" unicode="&#83;" d="M400 304l0 64c0 80-64 144-144 144-80 0-144-64-144-144l0-64c-27 0-48-21-48-48l0-112c0-80 64-144 144-144l96 0c80 0 144 64 144 144l0 112c0 27-22 48-48 48z m-256 64c0 62 50 112 112 112 62 0 112-50 112-112l0-64-32 0 0 64c0 44-36 80-80 80-44 0-80-36-80-80l0-64-32 0z m176 0l0-64-128 0 0 64c0 35 29 64 64 64 35 0 64-29 64-64z m96-160l0-64c0-62-50-112-112-112l-96 0c-62 0-112 50-112 112l0 112c0 9 7 16 16 16 11 0 21 0 32 0l224 0c11 0 21 0 32 0 9 0 16-7 16-16z m-160 0c-18 0-32-14-32-32 0-10 5-28 11-43 4-12 9-21 21-21 13 0 17 9 21 21 6 15 11 33 11 43 0 18-14 32-32 32z"/>
<glyph glyph-name="user" unicode="&#81;" d="M498 59c-3 2-62 40-149 59 32 40 53 94 61 131 12 50 8 147-40 209-28 35-68 54-114 54-46 0-86-19-114-54-48-62-52-159-40-209 8-37 29-91 61-131-87-19-146-57-149-59-11-8-17-23-13-36 4-14 17-23 31-23l448 0c14 0 27 9 31 23 4 13-2 28-13 36z m-174 79l-5-7c-38-44-88-44-126 0l-5 7c-45 56-67 131-57 202 8 68 48 140 125 140 77 0 117-72 125-140 10-71-12-146-57-202z m-292-106c2 1 56 37 137 55l40 8c14-9 30-15 47-15 17 0 33 6 47 15l40-8c80-18 134-53 137-55z"/>
<glyph glyph-name="phone" unicode="&#84;" d="M384 512l-256 0c-27 0-48-21-48-48l0-416c0-27 21-48 48-48l256 0c26 0 48 22 48 48l0 416c0 27-22 48-48 48z m16-464c0-9-7-16-16-16l-256 0c-9 0-16 7-16 16l0 32 288 0z m0 48l-288 0 0 320 288 0z m0 336l-288 0 0 32c0 9 7 16 16 16l256 0c9 0 16-7 16-16z m-112 24c0-4-4-8-8-8l-48 0c-4 0-8 4-8 8 0 4 4 8 8 8l48 0c4 0 8-4 8-8z m-16-400c0-4-4-8-8-8l-16 0c-4 0-8 4-8 8 0 4 4 8 8 8l16 0c4 0 8-4 8-8z"/>
<glyph glyph-name="mail" unicode="&#85;" d="M448 432l-384 0c-35 0-64-29-64-64l0-208c0-35 29-64 64-64l384 0c35 0 64 29 64 64l0 208c0 35-29 64-64 64z m-416-84l112-84-112-84z m448-188c0-18-14-32-32-32l-384 0c-18 0-32 14-32 32l125 94 70-52c9-7 19-10 29-10 10 0 20 3 29 10l70 52z m0 20l-112 84 112 84z m-205 34c-5-4-12-6-19-6-7 0-14 2-19 6l-66 50-14 10-125 94 0 0c0 18 14 32 32 32l384 0c18 0 32-14 32-32z"/>
<glyph glyph-name="data" unicode="&#86;" d="M256 512c-108 0-224-33-224-104l0-304c0-71 116-104 224-104 108 0 224 33 224 104l0 304c0 71-116 104-224 104z m192-408c0-40-86-72-192-72-106 0-192 32-192 72l0 60c33-34 113-52 192-52 79 0 159 18 192 52z m0 96l0 0c0 0 0 0 0 0 0-40-86-72-192-72-106 0-192 32-192 72 0 0 0 0 0 0l0 0 0 60c33-34 113-52 192-52 79 0 159 18 192 52z m0 96l0 0c0 0 0 0 0 0 0-40-86-72-192-72-106 0-192 32-192 72 0 0 0 0 0 0l0 0 0 55c42-32 119-47 192-47 73 0 150 15 192 47z m-192 40c-106 0-192 32-192 72 0 40 86 72 192 72 106 0 192-32 192-72 0-40-86-72-192-72z m160-240c0-9-7-16-16-16-9 0-16 7-16 16 0 9 7 16 16 16 9 0 16-7 16-16z m0 96c0-9-7-16-16-16-9 0-16 7-16 16 0 9 7 16 16 16 9 0 16-7 16-16z m0 96c0-9-7-16-16-16-9 0-16 7-16 16 0 9 7 16 16 16 9 0 16-7 16-16z"/>
<glyph glyph-name="vallet" unicode="&#87;" d="M320 192c0-18-14-32-32-32-18 0-32 14-32 32 0 18 14 32 32 32 18 0 32-14 32-32z m144 112c0 0 0 0 0 0l0 96 0 48c0 27-22 48-48 48l-328 0c-49 0-88-39-88-88l0-320c0-49 39-88 88-88l288 0c49 0 88 39 88 88l0 24c0 0 0 0 0 0 64 48 64 144 0 192z m-376 160l328 0c9 0 16-7 16-16l0-99c-5 2-10 3-16 3l0 0 0 80c0 9-7 16-16 16l-336 0c-9 0-16-7-16-16l0-63c-10 10-16 24-16 39 0 31 25 56 56 56z m312-48l-336 0 0 16 336 0z m0-16l0-16-336 0 0 16z m0-32l0-16-312 0c-9 0-17 2-24 6l0 10z m32-280c0-31-25-56-56-56l-288 0c-31 0-56 25-56 56l0 252c15-12 35-20 56-20l328 0c9 0 16-7 16-16l0-32-144 0c-44 0-80-36-80-80 0-44 36-80 80-80l144 0z m20 56l-164 0c-26 0-48 22-48 48 0 26 22 48 48 48l144 0c10 0 20 5 26 13 1 2 3 5 4 7 0 1 0 1 0 1 12-15 18-33 18-53 0-25-10-47-28-64z"/>
<glyph glyph-name="banknote" unicode="&#88;" d="M503 343l-160 160c-8 8-20 11-31 8-5-1-11-4-15-8-3-4-6-9-8-14-7-23-19-43-38-62-25-25-57-43-91-63-36-21-74-43-104-74-26-26-44-55-55-89-3-11 0-23 8-32l160-160c8-8 20-11 31-8 5 1 11 4 15 8 3 4 6 8 8 14 7 23 19 43 38 62 25 25 57 43 91 63 36 21 74 43 104 74 26 26 44 55 55 89 3 11 0 23-8 32z m-311-311c-53 53-107 107-160 160 45 147 243 141 288 288 53-53 107-107 160-160-45-147-243-141-288-288z m121 242c-5 4-10 7-16 8-5 2-10 2-16 2-5 0-10-2-16-4-5-2-10-4-16-7-8 10-17 20-26 29 4 4 8 5 12 6 3 0 7-1 10-2 3 0 7-1 9-2 3 0 6 0 8 2 2 2 4 5 4 8 0 3-1 6-4 9-3 4-7 6-12 7-5 1-10 1-15 0-5-1-10-3-15-6-4-3-8-5-10-8-2 1-3 2-4 3-1 1-2 2-4 2-2 0-3-1-4-3-1-1-2-2-2-4 0-2 1-3 2-4 1-1 2-2 3-3-4-5-7-10-10-16-2-6-4-11-5-17 0-6 0-11 2-15 2-5 5-9 10-13 7-6 16-9 26-8 11 0 22 3 33 10 10-11 19-22 29-32-4-4-8-6-11-6-3-1-6-1-8 0-3 1-5 2-7 3-2 2-4 3-6 4-2 1-5 2-7 2-2 0-4-1-7-3-2-3-4-5-4-8 0-3 2-6 4-9 3-4 7-6 11-8 4-2 9-3 14-4 6 0 11 1 17 3 6 2 12 6 18 12 2-3 5-6 8-8 1-1 3-2 4-2 2 1 4 1 5 3 1 1 1 3 1 4 0 2-1 3-2 4-3 3-5 5-8 7 5 6 8 12 11 19 3 6 5 12 5 17 1 6 0 11-1 15-2 5-5 9-10 13z m-89-11c-5 0-9 1-12 4-2 2-3 4-4 6 0 2 0 4 0 6 0 3 1 5 2 8 1 2 3 5 5 7 8-8 16-17 25-26-7-3-12-5-16-5z m75-32c-1-3-3-5-5-7-9 9-18 19-27 29 2 1 5 2 7 3 3 1 6 2 8 2 3 1 5 1 8 0 3-1 5-2 7-4 3-3 4-5 5-7 0-3 0-6 0-8-1-3-2-6-3-8z m-64-74l0 0c-10-8-19-16-28-25-9-8-17-18-24-27l-11-15 0 0c-2-3-1-7 1-10 4-3 9-3 12 0 0 1 1 1 1 2l10 14c7 8 14 17 22 25 9 9 17 16 27 24l0 0c1 0 1 0 1 0 3 3 3 8 0 12-3 3-7 3-11 0z m59 232c-8-9-17-16-27-24 0 0-1 0-2-1-3-3-3-8 0-11 3-3 8-3 12-1l0 0c10 8 19 16 28 25 9 9 17 18 24 27l11 15 0 0c2 4 2 8-1 11-3 4-8 4-11 0-1 0-1-1-2-2l-10-14c-7-9-14-17-22-25z"/>
<glyph glyph-name="calendar" unicode="&#89;" d="M469 464l-69 0 0 32c0 9-7 16-16 16-9 0-16-7-16-16l0-32-96 0 0 32c0 9-7 16-16 16-9 0-16-7-16-16l0-32-96 0 0 32c0 9-7 16-16 16-9 0-16-7-16-16l0-32-69 0c-24 0-43-19-43-43l0-378c0-24 19-43 43-43l426 0c24 0 43 19 43 43l0 378c0 24-19 43-43 43z m11-421c0-6-5-11-11-11l-426 0c-6 0-11 5-11 11l0 378c0 6 5 11 11 11l69 0 0-32c0-9 7-16 16-16 9 0 16 7 16 16l0 32 96 0 0-32c0-9 7-16 16-16 9 0 16 7 16 16l0 32 96 0 0-32c0-9 7-16 16-16 9 0 16 7 16 16l0 32 69 0c6 0 11-5 11-11z m-368 277l64 0 0-48-64 0z m0-80l64 0 0-48-64 0z m0-80l64 0 0-48-64 0z m112 0l64 0 0-48-64 0z m0 80l64 0 0-48-64 0z m0 80l64 0 0-48-64 0z m112-160l64 0 0-48-64 0z m0 80l64 0 0-48-64 0z m0 80l64 0 0-48-64 0z"/>
<glyph glyph-name="paperplane" unicode="&#90;" d="M505 509c-3 2-6 3-9 3-3 0-6-1-9-3l-480-320c-5-3-8-9-7-15 1-6 5-11 10-13l125-50 59-103c3-5 8-8 14-8 0 0 0 0 0 0 6 0 11 3 14 8l33 55 155-62c2-1 4-1 6-1 3 0 5 1 8 2 4 2 7 7 8 11l80 480c1 7-2 13-7 16z m-455-329l371 247-270-289c-1 1-2 2-4 3z m113-53c0 0 0 0 0 0l303 325-258-403z m240-89l-136 55c-3 1-7 2-10 2l210 326z"/>
<glyph glyph-name="photo" unicode="&#48;" d="M432 512l-352 0c-35 0-64-29-64-64l0-384c0-35 29-64 64-64l352 0c35 0 64 29 64 64l0 384c0 35-29 64-64 64z m32-448c0-18-14-32-32-32l-352 0c-18 0-32 14-32 32l0 384c0 18 14 32 32 32l352 0c18 0 32-14 32-32z m-48 384l-320 0c-9 0-16-7-16-16l0-288c0-9 7-16 16-16l320 0c9 0 16 7 16 16l0 288c0 9-7 16-16 16z m0-16l0-222-52 57c-3 3-7 5-12 5-5 0-9-2-12-5l-42-48-126 144c-3 3-7 5-12 5-5 0-9-2-12-5l-52-60 0 129z m-320-154l64 74 129-146 9-11 45-51-247 0z m268-134l-55 63 43 49 64-70 0-42z m-44 160c26 0 48 21 48 48 0 27-22 48-48 48-27 0-48-21-48-48 0-27 21-48 48-48z m0 80c18 0 32-14 32-32 0-18-14-32-32-32-18 0-32 14-32 32 0 18 14 32 32 32z"/>
<glyph glyph-name="refresh" unicode="&#49;" d="M117 271c10 57 68 119 138 119 41 0 77-18 102-47l34 23c-33 39-83 65-137 65-91 0-166-63-177-152l-77 15 76-112 111 76z m319 59l-111-76 70-13c-10-57-69-119-138-119-41 0-77 18-102 47l-34-23c33-39 83-65 137-65 91 0 166 63 177 152l77-15z"/>
<glyph glyph-name="switch" unicode="&#50;" d="M358 380c0 0 0-72 0-72 0 0-256 0-256 0 0 0 0-46 0-46 0 0-102 82-102 82 0 0 102 87 102 87 0 0 0-51 0-51 0 0 256 0 256 0m154-215c0 0-102-82-102-82 0 0 0 46 0 46 0 0-256 0-256 0 0 0 0 72 0 72 0 0 256 0 256 0 0 0 0 51 0 51 0 0 102-87 102-87"/>
</font>
</defs>
</svg>
